# xmcd
#
# Track frame offsets:
#	150
#	13312
#	28912
#	44550
#	56812
#	75975
#	88950
#	103800
#	118612
#	126862
#	142650
#	152250
#	168412
#	187575
#
# Disc length: 2724 seconds
#
# Revision: 0
# Processed by: cddbd v1.4PL0 Copyright (c) Steve Scherf et al.
# Submitted via: dBpowerAMP V4.0
#
DISCID=b10aa20e
DTITLE=111rd Tyme Out - John and Mary
DYEAR=1900
DGENRE=Bluegrass
TTITLE0=John And Mary
TTITLE1=Rose Of My Heart
TTITLE2=Lovin`  You, Goin` Blind
TTITLE3=Gold Summer Day In Georgia
TTITLE4=Milk Cow Blues
TTITLE5=Snow Angel
TTITLE6=Blue Ridge Mountain Memories
TTITLE7=I Pray My Way Out Of Trouble
TTITLE8=Out Of Sight, Out Of Mind
TTITLE9=Another Evening Alone
TTITLE10=Just Call On Him
TTITLE11=Coal Mine Blues
TTITLE12=Bobby And Millie
TTITLE13=On The Lonely Side Of Town
EXTD=
EXTT0=
EXTT1=
EXTT2=
EXTT3=
EXTT4=
EXTT5=
EXTT6=
EXTT7=
EXTT8=
EXTT9=
EXTT10=
EXTT11=
EXTT12=
EXTT13=
PLAYORDER=
